<svg width="58" height="46" viewBox="0 0 58 46" fill="none" xmlns="http://www.w3.org/2000/svg">
<path d="M28.7109 0C39.3484 0 47.9715 8.6233 47.9717 19.2607C47.9717 29.8983 39.3485 38.5225 28.7109 38.5225C18.0734 38.5224 9.4502 29.8983 9.4502 19.2607C9.45036 8.62334 18.0735 5.77283e-05 28.7109 0Z" fill="white"/>
<path d="M28.711 46L18.7027 28.3251H38.7194L28.711 46Z" fill="white"/>
<path d="M29.2959 4C37.7432 4.0002 44.5908 10.8485 44.5908 19.2959C44.5906 27.7431 37.7431 34.5906 29.2959 34.5908C20.8485 34.5908 14.0002 27.7432 14 19.2959C14 10.8484 20.8484 4 29.2959 4Z" fill="black"/>
<path d="M29.2917 11.5833C31.1813 11.5833 32.9936 12.334 34.3298 13.6702C35.666 15.0064 36.4167 16.8187 36.4167 18.7083" stroke="white" stroke-linecap="round" stroke-linejoin="round"/>
<path d="M29.2917 14.75C30.3415 14.75 31.3483 15.167 32.0906 15.9094C32.833 16.6517 33.25 17.6585 33.25 18.7083" stroke="white" stroke-linecap="round" stroke-linejoin="round"/>
<path d="M29.9503 23.1163C30.1138 23.1914 30.298 23.2086 30.4726 23.165C30.6471 23.1214 30.8016 23.0196 30.9106 22.8765L31.1917 22.5083C31.3391 22.3117 31.5304 22.1521 31.7502 22.0422C31.9701 21.9322 32.2125 21.875 32.4583 21.875H34.8333C35.2533 21.875 35.656 22.0418 35.9529 22.3387C36.2499 22.6357 36.4167 23.0384 36.4167 23.4583V25.8333C36.4167 26.2533 36.2499 26.656 35.9529 26.9529C35.656 27.2499 35.2533 27.4167 34.8333 27.4167C31.054 27.4167 27.4295 25.9153 24.7571 23.2429C22.0847 20.5705 20.5833 16.946 20.5833 13.1667C20.5833 12.7467 20.7501 12.344 21.0471 12.0471C21.344 11.7501 21.7467 11.5833 22.1667 11.5833H24.5417C24.9616 11.5833 25.3643 11.7501 25.6613 12.0471C25.9582 12.344 26.125 12.7467 26.125 13.1667V15.5417C26.125 15.7875 26.0678 16.0299 25.9578 16.2498C25.8479 16.4696 25.6883 16.6609 25.4917 16.8083L25.1212 17.0862C24.9758 17.1972 24.8734 17.355 24.8313 17.533C24.7891 17.7109 24.8099 17.898 24.89 18.0623C25.972 20.2599 27.7514 22.0371 29.9503 23.1163Z" stroke="white" stroke-linecap="round" stroke-linejoin="round"/>
</svg>
