<svg width="58" height="46" viewBox="0 0 51 60" fill="none" xmlns="http://www.w3.org/2000/svg">
<circle cx="25.1231" cy="25.1231" r="25.1231" fill="white"/>
<path d="M25.1231 60L12.0688 36.9458L38.1775 36.9458L25.1231 60Z" fill="white"/>
<circle cx="25.2709" cy="25.2709" r="19.9507" fill="black"/>
<path d="M16.2562 22.9064C15.3522 24.4527 14.9861 26.2549 15.2151 28.0313C15.4441 29.8077 16.2552 31.4581 17.5217 32.7246C18.7882 33.9911 20.4386 34.8022 22.215 35.0312C23.9914 35.2602 25.7936 34.8941 27.3399 33.9901L16.2562 22.9064Z" stroke="white" stroke-width="2" stroke-linecap="round" stroke-linejoin="round"/>
<path d="M21.798 28.4483L25.1232 25.1232" stroke="white" stroke-width="2" stroke-linecap="round" stroke-linejoin="round"/>
<path d="M30.665 26.2315C30.665 24.4678 29.9644 22.7763 28.7172 21.5291C27.47 20.2819 25.7785 19.5813 24.0148 19.5813" stroke="white" stroke-width="2" stroke-linecap="round" stroke-linejoin="round"/>
<path d="M35.0985 26.2315C35.0985 23.2919 33.9308 20.4727 31.8522 18.3941C29.7736 16.3155 26.9544 15.1478 24.0148 15.1478" stroke="white" stroke-width="2" stroke-linecap="round" stroke-linejoin="round"/>
</svg>