<svg width="58" height="46" viewBox="0 0 58 46" fill="none" xmlns="http://www.w3.org/2000/svg">
<path d="M28.7109 0C39.3484 0 47.9715 8.6233 47.9717 19.2607C47.9717 29.8983 39.3485 38.5225 28.7109 38.5225C18.0734 38.5224 9.4502 29.8983 9.4502 19.2607C9.45036 8.62334 18.0735 5.77283e-05 28.7109 0Z" fill="white"/>
<path d="M28.711 46L18.7027 28.3251H38.7194L28.711 46Z" fill="white"/>
<path d="M29.2959 4C37.7432 4.0002 44.5908 10.8485 44.5908 19.2959C44.5906 27.7431 37.7431 34.5906 29.2959 34.5908C20.8485 34.5908 14.0002 27.7432 14 19.2959C14 10.8484 20.8484 4 29.2959 4Z" fill="#4285F4"/>
<path d="M35 27C35 25.4087 34.3679 23.8826 33.2426 22.7574C32.1174 21.6321 30.5913 21 29 21C27.4087 21 25.8826 21.6321 24.7574 22.7574C23.6321 23.8826 23 25.4087 23 27" stroke="white" stroke-linecap="round" stroke-linejoin="round"/>
<path d="M29 21C31.2091 21 33 19.2091 33 17C33 14.7909 31.2091 13 29 13C26.7909 13 25 14.7909 25 17C25 19.2091 26.7909 21 29 21Z" stroke="white" stroke-linecap="round" stroke-linejoin="round"/>
<path d="M29 29C34.5228 29 39 24.5228 39 19C39 13.4772 34.5228 9 29 9C23.4772 9 19 13.4772 19 19C19 24.5228 23.4772 29 29 29Z" stroke="white" stroke-linecap="round" stroke-linejoin="round"/>
</svg>
